<?xml version="1.0" encoding="UTF-8"?>
<svg width="22px" height="22px" viewBox="0 0 22 22" version="1.1" xmlns="http://www.w3.org/2000/svg" xmlns:xlink="http://www.w3.org/1999/xlink">
    <!-- Generator: Sketch 52.6 (67491) - http://www.bohemiancoding.com/sketch -->
    <title>info</title>
    <desc>Created with Sketch.</desc>
    <defs>
        <path d="M11.0000005,0 L11,1.30266583e-14 C4.924865,2.65552846e-07 0,4.924865 0,11 C2.65552833e-07,17.075135 4.924865,22 11,22 C17.075135,21.9999997 22,17.075135 22,11 L22,11.0000005 C22,4.92486548 17.075135,4.80825597e-07 11,4.80825597e-07 L11.0000005,0 Z M11.9166671,16.5 C11.9166671,17.0062612 11.5062617,17.4166667 11.0000005,17.4166667 C10.4937392,17.4166666 10.0833338,17.0062612 10.0833338,16.5 C10.0833338,16.5 10.0833338,16.5 10.0833338,16.5 L10.0833338,10.0833333 L10.0833338,10.0833335 C10.0833337,9.57707222 10.4937392,9.16666681 11.0000004,9.16666681 C11.5062617,9.16666678 11.9166671,9.57707222 11.9166671,10.0833335 L11.9166671,16.5 Z M11.0000005,7.33333333 C10.240609,7.3333333 9.62500042,6.71772475 9.62500042,5.95833333 C9.62500045,5.19894192 10.240609,4.58333333 11.0000004,4.58333333 C11.7593918,4.58333337 12.3750004,5.19894192 12.3750004,5.95833333 C12.3750004,6.71772469 11.7593918,7.33333327 11.0000004,7.33333327 Z" id="path-1"></path>
    </defs>
    <g id="Page-1" stroke="none" stroke-width="1" fill="none" fill-rule="evenodd">
        <mask id="mask-2" fill="white">
            <use xlink:href="#path-1"></use>
        </mask>
        <use id="info" fill="#FF7200" xlink:href="#path-1"></use>
    </g>
</svg>