<svg xmlns="http://www.w3.org/2000/svg" xmlns:xlink="http://www.w3.org/1999/xlink" width="180" height="48">
  <linearGradient id="a">
    <stop offset="0" stop-color="#ec6d8f"/>
    <stop offset="1" stop-color="#fadfe6"/>
  </linearGradient>
  <linearGradient id="c" x1="44.7%" x2="44.7%" y1="103%" y2="-.6%" xlink:href="#a"/>
  <linearGradient id="d" x1="12.1%" x2="12.1%" y1="103%" y2="-.6%" xlink:href="#a"/>
  <linearGradient id="b">
    <stop offset="0" stop-color="#009540"/>
    <stop offset="1" stop-color="#d6e9d8"/>
  </linearGradient>
  <linearGradient id="e" x1="44.6%" x2="44.6%" y1="103%" y2="-.6%" xlink:href="#b"/>
  <linearGradient id="f" x1="12.1%" x2="12.1%" y1="103%" y2="-.6%" xlink:href="#b"/>
  <g fill="none">
    <path fill="url(#c)" d="M154 8h25.2V40h-25.3z"/>
    <path fill="url(#d)" d="M142 8h3.5V40H142z"/>
    <path fill="#00a65d" d="M166.2 19.5l-1.6-.8 6.6-16 1.3.6zm-3.3.5l-2.8-1.3 6.2-16 3.1 1.3z"/>
    <path fill="url(#e)" d="M0 8.3h25.3v31.8H0z"/>
    <path fill="#1d1d1b" d="M19 1h21.4v11.7l-.9-4.5c-.2-1-.8-3.3-1.6-4.1s-2.2-1.9-3.2-2l-2.9-.4v44.8h2.4v1h-9.5v-1h2.6V1.8s-2.7.2-3.3.5a10.5 10.5 0 0 0-2.2 1.9c-.3.5-1.6 2.5-1.7 3.3-.5 2.2-.6 3.5-.6 3.5l-.5 2zm24.2 0h17.6v11.8l-.7-2.3-.7-4c-.2-.7-1-2.4-2-3.2s-2.8-1.7-4-1.7h-2.8V23a.7.7 0 0 0 .7.2c.5-.1 2.1-.6 2.6-1.2a8.9 8.9 0 0 0 1.4-2.4l.5-3.3V15l.4-.1.2.5v16.4l-.2.5a.8.8 0 0 1-.4 0l-.2-1.5c0-.2 0-2.3-.3-3-.3-.8-.9-2.2-1.5-2.7a5.7 5.7 0 0 0-2-1 1.4 1.4 0 0 0-1.2.2v22.1c1.5.2 2.9 0 4.3-.3a7.2 7.2 0 0 0 3.3-2.5 13.8 13.8 0 0 0 1.7-3.8c.2-1.4.4-2.8.4-4.2 0-.1.2-.4.4-.4s.3.3.3.3l-.1 12H42.6l-.1-1h3.3V1.9h-2.5zm18.3 46.5v-1H64L70.7 1s0-.6.2-.5c.2 0 .3.5.3.5L77 31.6l4.4-30.4s.2-.5.3-.5c.2 0 .3.5.3.5L90 46l.3.5 1 .1v1H87v-1.1h1.8l.2-.4-5.3-29.3-4.5 30.7s.2.4-.2.4-.4-.3-.4-.3l-5.8-32-4 30.9H71v1zm38.8-46a2.6 2.6 0 0 1 1.2.6 7 7 0 0 1 2.4 2.7 22 22 0 0 1 1.7 9c0 3.6-.4 7-1.7 9-1.3 2-3 2.3-4.2 2.3s-1.7-.4-1.7-.4v-23zm-9 45v1h9.2v-1H98V25.8l1.7.3c1 0 3.7 0 6.6-2.7a13 13 0 0 0 3.7-9.6c0-3.2-1.4-7.7-2.7-9.4-1.1-1.5-3.4-3.2-5.3-3.5H91l.1.7h2.5v44.9zm35.3-34.2s-.1.1.2.1.3-.1.3-.1V1s.1-.2-.3-.2-.5.5-.5.5a.7.7 0 0 1-.6.6 1.6 1.6 0 0 1-1.2-.3 6.4 6.4 0 0 0-4.2-1.6 7.9 7.9 0 0 0-5.5 2c-1 1.1-2.6 2.7-2.8 7.5.4 4.5 1 5.1 2 7.5 1.2 2.3 4.7 7.7 5 8.2l4 6.5c.3.5 2.7 4.9 2.8 7 .2 2.2-.4 4.3-1 5-.4.7-2.2 3.3-4.6 3-2.4-.1-3.8-.8-5-2.6a16.6 16.6 0 0 1-2.4-6.5 28.2 28.2 0 0 0-.4-3.2s0-.3-.2-.3a1.5 1.5 0 0 0-.4.2v12.2s0 .3.2.3.5-.4.5-.4a2.1 2.1 0 0 1 1.2-1c.7-.1 1.7.4 2.5 1a8 8 0 0 0 4.2 1.3c2 0 5-1.6 6.3-4.2 1.6-2.6 2.5-6 1.2-10.3a35.9 35.9 0 0 0-4-8.4c-.5-1-5.8-9.3-5.8-9.3s-2.2-3.9-2.5-4.9c-.2-1-1-2.6-.9-4 .1-1.5.3-3.2 1.4-4s1.7-2 4.2-1.8c2.5 0 3.3 1.8 4 2.5 1 .9 1.8 4.5 1.8 5l.4 4M145.3 1h9.9v.6h-3v44.7s-.2.3 2 .2c2.2-.1 3.3-.5 4.4-1.7 1.2-1.2 2-3.5 2.4-4.5.3-1 .6-4.8.6-4.8v-.3h.3c.3 0 .3.2.3.2v12.1h-17.4V46h2.6V1.5h-2z"/>
    <path fill="url(#f)" d="M33.6 8.3h3.6v31.8h-3.6z"/>
    <path fill="#ec6d8f" d="M13 28.7l1.5.8-6.6 16-1.2-.7zm3.2-.5l3 1.3-6.4 16-3-1.3z"/>
  </g>
</svg>
