<svg xmlns="http://www.w3.org/2000/svg" width="37" height="32">
  <path fill="#000" fill-rule="nonzero" d="M35.5 4H9.3l-.6-2.8C8.6.5 8 0 7.2 0H.8C.3 0 0 .3 0 .8v1.4c0 .5.3.8.8.8h5.1l4.5 22.2A4 4 0 0 0 9.2 28a4 4 0 0 0 4.2 4 4 4 0 0 0 4-4c0-.7-.1-1.4-.5-2h9.3a4 4 0 0 0 3.6 6 4 4 0 0 0 4.1-4 4 4 0 0 0-1.2-2.9v-.3c.2-1-.5-1.8-1.5-1.8H13.1l-.6-3h20c.8 0 1.4-.5 1.6-1.2l2.9-13c.2-1-.6-1.8-1.5-1.8zM13.4 29.5c-.9 0-1.6-.7-1.6-1.5s.7-1.5 1.6-1.5c.8 0 1.5.7 1.5 1.5s-.7 1.5-1.5 1.5zm16.4 0c-.8 0-1.5-.7-1.5-1.5s.7-1.5 1.5-1.5c.9 0 1.5.7 1.5 1.5s-.6 1.5-1.5 1.5zM31.3 17H12l-2-10h23.6l-2.2 10z"/>
</svg>
