<svg height="48" width="180" xmlns="http://www.w3.org/2000/svg" xmlns:xlink="http://www.w3.org/1999/xlink"><linearGradient id="a"><stop offset="0" stop-color="#ec6d8f"/><stop offset="1" stop-color="#fadfe6"/></linearGradient><linearGradient id="c" x1="44.668%" x2="44.668%" xlink:href="#a" y1="102.962%" y2="-.587%"/><linearGradient id="d" x1="12.065%" x2="12.065%" xlink:href="#a" y1="102.962%" y2="-.587%"/><linearGradient id="b"><stop offset="0" stop-color="#009540"/><stop offset="1" stop-color="#d6e9d8"/></linearGradient><linearGradient id="e" x1="44.647%" x2="44.647%" xlink:href="#b" y1="102.962%" y2="-.587%"/><linearGradient id="f" x1="12.065%" x2="12.065%" xlink:href="#b" y1="102.962%" y2="-.587%"/><g fill="none"><path d="M153.91 8.09h25.261v31.76H153.91z" fill="url(#c)"/><path d="M141.963 8.09h3.565v31.76h-3.565z" fill="url(#d)"/><path d="M166.238 19.47l-1.597-.76 6.6-16.013 1.278.647zM162.938 20.009l-2.875-1.3 6.281-16.012 3.087 1.3z" fill="#00a65d"/><path d="M0 8.322h25.262v31.76H0z" fill="url(#e)"/><g fill="#1d1d1b"><path d="M19.055 1.084H40.38v11.655s-.594-3.603-.848-4.547c-.255-.943-.854-3.316-1.634-4.11s-2.202-1.876-3.183-2.06-2.886-.285-2.886-.285V46.5h2.414v.927h-9.507v-.927h2.552V1.807s-2.732.145-3.337.507a10.466 10.466 0 0 0-2.164 1.877c-.318.463-1.56 2.556-1.703 3.279-.456 2.206-.589 3.494-.589 3.494l-.461 2.06zM43.203 1.014h17.58v11.833s-.53-1.84-.674-2.384c-.143-.545-.53-3.355-.742-4.002-.213-.647-.96-2.378-1.99-3.139s-2.8-1.736-3.973-1.769-2.801.033-2.801.033V23.05a.704.704 0 0 0 .743.248c.498-.108 2.058-.61 2.557-1.224a8.901 8.901 0 0 0 1.347-2.417c.143-.577.493-2.993.53-3.236.038-.242.038-1.407.038-1.407l.424-.146.143.577V31.82s-.074.432-.212.507a.83.83 0 0 1-.393.033s-.143-1.44-.175-1.586c-.031-.146-.074-2.27-.355-3.031-.281-.76-.817-2.157-1.422-2.632a5.709 5.709 0 0 0-2.122-1.009 1.365 1.365 0 0 0-1.06.178v22.15c1.42.157 2.856.058 4.243-.29a7.215 7.215 0 0 0 3.337-2.525 13.85 13.85 0 0 0 1.666-3.775c.245-1.394.376-2.807.392-4.223.037-.146.175-.394.388-.394.212 0 .286.286.286.286l-.1 12.027H42.554l-.1-1.078 3.39.032V1.882h-2.552zM61.473 47.51v-1.004h2.493L70.65.906s0-.577.244-.54c.244.038.355.502.355.502l5.608 30.742 4.472-30.375s.143-.54.318-.54c.175 0 .286.54.286.54L89.806 46l.355.507 1.104.103v.906h-4.297v-1.03l1.846-.049.212-.367-5.305-29.29-4.54 30.741s.174.361-.213.361-.393-.253-.393-.253l-5.729-31.971L68.72 46.49h2.366v.992zM100.262 1.586a2.58 2.58 0 0 1 1.204.469 7.073 7.073 0 0 1 2.392 2.767c.886 1.769 1.772 5.339 1.74 8.947-.032 3.608-.43 7.011-1.703 9.055-1.273 2.044-2.944 2.233-4.19 2.309s-1.693-.383-1.693-.383V1.629zm-8.966 44.898l.053.993h9.188v-.95h-2.52V25.775c.555.203 1.136.32 1.725.346.96.037 3.655.037 6.567-2.697 2.912-2.734 3.618-6.418 3.687-9.632.069-3.215-1.385-7.643-2.695-9.38-1.135-1.488-3.443-3.235-5.305-3.462C100.378.884 91.042.911 91.042.911l.095.69h2.488v44.883zM126.568 12.27s-.106.178.212.178.282-.178.282-.178V1.046s.143-.29-.213-.29-.567.576-.567.576a.658.658 0 0 1-.557.583 1.605 1.605 0 0 1-1.204-.362A6.43 6.43 0 0 0 120.33.005a7.879 7.879 0 0 0-5.533 2.017c-1.061 1.08-2.626 2.67-2.801 7.432.355 4.547.992 5.156 2.021 7.55 1.204 2.272 4.647 7.686 5.002 8.188.356.501 3.83 6.1 4.048 6.531.218.432 2.62 4.854 2.764 7.011.143 2.158-.462 4.315-.955 4.978-.493.664-2.27 3.285-4.652 3.07-2.382-.217-3.793-.87-4.929-2.698-1.135-1.828-2.307-4.4-2.487-6.471a28.186 28.186 0 0 0-.425-3.236s-.069-.286-.212-.254a1.545 1.545 0 0 0-.355.184v12.188s-.032.292.212.292.461-.362.461-.362a2.13 2.13 0 0 1 1.173-.976c.7-.178 1.692.361 2.514.9a7.96 7.96 0 0 0 4.244 1.333c1.984 0 4.965-1.586 6.313-4.185 1.56-2.595 2.45-5.933 1.172-10.248a35.86 35.86 0 0 0-3.941-8.408c-.6-1.078-5.836-9.379-5.836-9.379s-2.27-3.823-2.482-4.853c-.213-1.03-1.03-2.595-.923-4.04.106-1.445.286-3.139 1.352-4.04S117.81.653 120.293.76c2.482.108 3.3 1.807 3.941 2.562.992.83 1.846 4.477 1.878 4.978s.43 4.007.43 4.007M145.268 1.014h9.93l.075.54h-3.088v44.73s-.143.287 2.022.179c2.164-.108 3.262-.47 4.434-1.656 1.173-1.186 1.99-3.462 2.345-4.476.356-1.014.6-4.854.6-4.854-.023-.085-.002-.176.056-.241s.145-.097.23-.083c.355 0 .355.254.355.254l-.053 12.102h-17.42l.052-1.461h2.59V1.52l-2.043.01z"/></g><path d="M33.649 8.322h3.564v31.76H33.65z" fill="url(#f)"/><g fill="#ec6d8f"><path d="M12.933 28.703l1.597.755-6.6 16.018-1.278-.647zM16.233 28.164l2.875 1.294-6.28 16.018-3.088-1.3z"/></g></g></svg>